# xmcd CD database file
#
# Track frame offsets:
#	150
#	14960
#	28385
#	42952
#	56215
#	71767
#	85457
#	99130
#	111085
#	131802
#	146722
#	160367
#	175157
#	188537
#	205147
#	227502
#
# Disc length: 3288 seconds
#
# Revision: 0
# Processed by: cddbd v1.4PL0 Copyright (c) Steve Scherf et al.
# Submitted via: CDex 1.40Release
#
DISCID=e90cd610
DTITLE=Mixed - Easy Ridin'
DYEAR=2002
DGENRE=Country
TTITLE0=Amie
TTITLE1=Southern Nights
TTITLE2=If You Love Me
TTITLE3=Behind Closed Doors
TTITLE4=It's A Heartache
TTITLE5=You Don't Mess Around With Jim
TTITLE6=Dance With Me
TTITLE7=Don't It Make My Brown Eyes Blue
TTITLE8=Fooled Around And Fell In Love
TTITLE9=Let Your Love Flow
TTITLE10=We Just Disagree
TTITLE11=Seven Year Ache
TTITLE12=I Can Help
TTITLE13=Lookin' For Love
TTITLE14=Lady
TTITLE15=Danny's Song
EXTD=YEAR: 2002 ID3G: 2
EXTT0=
EXTT1=
EXTT2=
EXTT3=
EXTT4=
EXTT5=
EXTT6=
EXTT7=
EXTT8=
EXTT9=
EXTT10=
EXTT11=
EXTT12=
EXTT13=
EXTT14=
EXTT15=
PLAYORDER=
